<svg id="Layer_1" data-name="Layer 1" xmlns="http://www.w3.org/2000/svg" width="577" height="541" viewBox="0 0 577 541">
  <defs>
    <style>
      .cls-1 {
        fill: #fff;
      }
    </style>
  </defs>
  <title>fiji-water-logo</title>
  <g>
    <path class="cls-1" d="M-70,109h6l5,15h0l5-15h6v19h-4V112h0l-6,16h-3l-6-16h0v16h-4V109Zm-13,3h-6v-3h15v3h-6v16h-4V112Z" transform="translate(625 -98)"/>
    <polygon class="cls-1" points="155 417 126 502 86 415 45 502 16 417 1 417 43 541 85 450 128 541 170 417 155 417 155 417"/>
    <path class="cls-1" d="M-387,587h-34l17-38,17,38Zm-17-74-55,124h16l16-35h46l16,35h16l-54-124Z" transform="translate(625 -98)"/>
    <polygon class="cls-1" points="271 417 271 431 301 431 301 538 316 538 316 431 346 431 346 417 271 417 271 417"/>
    <polygon class="cls-1" points="373 417 373 538 436 538 436 523 388 523 388 479 434 479 434 465 388 465 388 431 436 431 436 417 373 417 373 417"/>
    <path class="cls-1" d="M-128,532c-5-2-12-2-18-2h-2v38h6c7,0,13,0,18-4a19,19,0,0,0,7-15c0-8-4-14-10-17Zm33,104h-18l-36-50v50h-15V515h18c9,0,20,0,29,6s13,16,13,27-3,18-9,24-12,8-21,9l38,54Z" transform="translate(625 -98)"/>
    <path class="cls-1" d="M-210,105a6,6,0,0,0-1-3h0l-2-2h-82a6,6,0,0,0-1,3v7h0l3,3h12V441h-16V346l2-4h1v-3h0a5,5,0,0,0-1-3h0l-2-2-5-3h-8l-42,40h-1v62h0v5l2,5h0l2,5h0l3,4h0l3,4h0l4,4h0l4,3h1l5,3h1l5,2,6,2h1l7,2h36l8-2h1l7-2h1l6-3,3-2h1l5-4h0l4-4h1l4-4h0l3-4,3-5h0l2-4V424h0V118h12l3-3h0v-6Z" transform="translate(625 -98)"/>
    <path class="cls-1" d="M-478,223l-4,2,4-2v-2h0v3Z" transform="translate(625 -98)"/>
    <path class="cls-1" d="M-476,218h0Z" transform="translate(625 -98)"/>
    <path class="cls-1" d="M-476,220a5,5,0,0,0,0-1,5,5,0,0,1,0,1Z" transform="translate(625 -98)"/>
    <path class="cls-1" d="M-476,221h0Z" transform="translate(625 -98)"/>
    <path class="cls-1" d="M-476,219h0Zm0,1a5,5,0,0,0,0-1,5,5,0,0,1,0,1Zm-1,3-4,2,4-2v-3h0a6,6,0,0,0,0-1l-13-115v-2h0l-3-2H-624a6,6,0,0,0-1,3v4h0v3h0l3,2h12V457h-14a5,5,0,0,0-1,3v5a6,6,0,0,0,1,4h84a7,7,0,0,0,1-4v-5a6,6,0,0,0-1-3h0l-2-2h-12V306h10l2,2v2l3,8,3,7v2h0l2,3v3l11,26h1l3,2h11l2-2h0a6,6,0,0,0,1-3V223a6,6,0,0,0-1-4h-1l-4-2h-5l-4,2h-1v2l-11,26-4,8-3,6-2,4h-13V135h16v2l4,6,4,7,5,8,8,17,6,13h0l12,29h17v-2h1v2Z" transform="translate(625 -98)"/>
    <path class="cls-1" d="M-372,462h0l-2-2h-12V118h12l3-3h0v-9h-83l-2,2h0v8h0l3,3h11V457h-14a6,6,0,0,0-1,3v5a6,6,0,0,0,1,4h83l2-2h0v-7a6,6,0,0,0-1-3Z" transform="translate(625 -98)"/>
    <path class="cls-1" d="M-100,462l-2-2h-12V118h12l3-3h0v-9h0v-2h-83a6,6,0,0,0-1,3v4h0v2h0l3,2h11V457h-14a6,6,0,0,0-1,3v5a6,6,0,0,0,1,4h84a7,7,0,0,0,1-4v-5a6,6,0,0,0-1-3Z" transform="translate(625 -98)"/>
  </g>
</svg>
